<?xml version="1.0" encoding="UTF-8" standalone="no"?>
<svg width="14px" height="21px" viewBox="0 0 14 21" version="1.1" xmlns="http://www.w3.org/2000/svg" xmlns:xlink="http://www.w3.org/1999/xlink">
  <g id="Credit-Lock" stroke="none" stroke-width="1" fill="none" fill-rule="evenodd">
    <g id="1.1-Creditlock-Unlocked-History-Desktop" transform="translate(-289.000000, -336.000000)" fill="#FFFFFF" fill-rule="nonzero">
      <g id="bureau" transform="translate(167.000000, 190.000000)">
        <g id="button" transform="translate(108.000000, 136.000000)">
          <path d="M23.7125,18.4431818 L23.7125,14.7840909 C23.7125,13.2878409 22.49625,12.0715909 21,12.0715909 C19.50375,12.0715909 18.2875,13.2878409 18.2875,14.7840909 L18.2875,14.7840909 L18.287,16.1360909 L16.625,16.1360909 L16.625,14.7840909 C16.625,12.4401203 18.4714014,10.5247786 20.7881309,10.4141391 L21,10.4090909 C23.415,10.4090909 25.375,12.3690909 25.375,14.7840909 L25.375,14.7840909 L25.375,18.4431818 L26.25,18.4431818 C27.2125,18.4431818 28,19.2306818 28,20.1931818 L28,20.1931818 L28,28.9431818 C28,29.9056818 27.2125,30.6931818 26.25,30.6931818 L26.25,30.6931818 L15.75,30.6931818 C14.7875,30.6931818 14,29.9056818 14,28.9431818 L14,28.9431818 L14,20.1931818 C14,19.2306818 14.7875,18.4431818 15.75,18.4431818 L15.75,18.4431818 L23.7125,18.4431818 Z M21,22.8181818 C20.0375,22.8181818 19.25,23.6056818 19.25,24.5681818 C19.25,25.5306818 20.0375,26.3181818 21,26.3181818 C21.9625,26.3181818 22.75,25.5306818 22.75,24.5681818 C22.75,23.6056818 21.9625,22.8181818 21,22.8181818 Z" id="unlock_icon-copy"></path>
        </g>
      </g>
    </g>
  </g>
</svg>
