<?xml version="1.0" encoding="UTF-8" standalone="no"?>
<svg width="18px" height="18px" viewBox="0 0 18 18" version="1.1" xmlns="http://www.w3.org/2000/svg" xmlns:xlink="http://www.w3.org/1999/xlink">
  <g id="Design" stroke="none" stroke-width="1" fill="none" fill-rule="evenodd">
    <g id="1.1.1-Credit-Alerts-Desktop" transform="translate(-764.000000, -459.000000)" fill="#1665D8">
      <g id="insurance" transform="translate(165.000000, 231.000000)">
        <g id="Icons-/-24px-/-Print" transform="translate(596.000000, 225.000000)">
          <path d="M7.04166667,3.5 L7.04166667,8.45833333 L5.625,8.45833333 C4.45979167,8.45833333 3.5,9.418125 3.5,10.5833333 L3.5,17.6666667 L7.04166667,17.6666667 L7.04166667,20.5 L16.9583333,20.5 L16.9583333,17.6666667 L20.5,17.6666667 L20.5,10.5833333 C20.5,9.418125 19.5402083,8.45833333 18.375,8.45833333 L16.9583333,8.45833333 L16.9583333,3.5 L7.04166667,3.5 Z M8.45833333,4.91666667 L15.5416667,4.91666667 L15.5416667,8.45833333 L8.45833333,8.45833333 L8.45833333,4.91666667 Z M5.625,9.875 L18.375,9.875 C18.7759167,9.875 19.0833333,10.1824167 19.0833333,10.5833333 L19.0833333,16.25 L16.9583333,16.25 L16.9583333,13.4166667 L7.04166667,13.4166667 L7.04166667,16.25 L4.91666667,16.25 L4.91666667,10.5833333 C4.91666667,10.1824167 5.22408333,9.875 5.625,9.875 Z M6.33333333,10.5833333 C5.94375,10.5833333 5.625,10.9020833 5.625,11.2916667 C5.625,11.68125 5.94375,12 6.33333333,12 C6.72291667,12 7.04166667,11.68125 7.04166667,11.2916667 C7.04166667,10.9020833 6.72291667,10.5833333 6.33333333,10.5833333 Z M8.45833333,14.8333333 L15.5416667,14.8333333 L15.5416667,19.0833333 L8.45833333,19.0833333 L8.45833333,14.8333333 Z" id="Shape"></path>
        </g>
      </g>
    </g>
  </g>
</svg>
