<?xml version="1.0" encoding="UTF-8" standalone="no"?>
<svg width="116px" height="116px" viewBox="0 0 116 116" version="1.1" xmlns="http://www.w3.org/2000/svg" xmlns:xlink="http://www.w3.org/1999/xlink">
  <g id="Design" stroke="none" stroke-width="1" fill="none" fill-rule="evenodd">
    <g id="1.3-ID-Protection-Services-Desktop" transform="translate(-1094.000000, -990.000000)">
      <g id="id-restoration" transform="translate(165.000000, 921.000000)">
        <g id="password" transform="translate(928.500000, 68.500000)">
          <circle id="Oval" fill="#0067FF" cx="58.5" cy="58.5" r="58"></circle>
          <circle id="Oval" fill="#227BFF" cx="58.5" cy="58.5" r="49"></circle>
          <circle id="Oval" fill="#0052CC" opacity="0.495954241" cx="58.5" cy="58.5" r="40.5"></circle>
          <path d="M62.0375653,88.2388863 C62.6324156,87.8704885 63.4134455,88.0540272 63.7825035,88.6488777 C64.1509015,89.2443881 63.9667025,90.0254181 63.371192,90.3944761 C61.977486,91.2573723 60.4821075,92.0403829 58.9273099,92.7217209 C58.7615969,92.7943441 58.5886216,92.8286751 58.4189473,92.8286751 C57.9310512,92.8286751 57.4656021,92.5454445 57.2569755,92.0700924 C56.9763856,91.4290272 57.2681991,90.6810079 57.9092641,90.3997578 C59.3551268,89.765955 60.7442113,89.0390624 62.0375653,88.2388863 Z M62.0071955,80.2450483 C62.5314033,79.7809199 63.3328997,79.8304356 63.7963681,80.3546435 C64.2604966,80.8788511 64.2109808,81.6796874 63.6867729,82.1438159 C59.133956,86.1711046 53.0560512,88.8555237 45.6220723,90.1231294 C45.5501092,90.1356733 45.4781462,90.1416153 45.4075035,90.1416153 C44.8007695,90.1416153 44.2646779,89.7052157 44.1597043,89.0872579 C44.0415264,88.3966769 44.505655,87.7417473 45.1955757,87.6242298 C52.1568433,86.4371698 57.8135335,83.9541153 62.0071955,80.2450483 Z M58.8196955,49.5425835 C63.4999333,49.5425835 67.3113329,53.3361575 67.339722,58.0104533 C67.408384,58.922205 67.9669226,68.5830765 61.6255934,75.6116857 C57.1308751,80.5949604 47.9737448,84.3073284 37.7272659,85.2996258 C37.6856725,85.3042473 37.6440793,85.306228 37.6031462,85.306228 C36.95878,85.306228 36.4068433,84.815691 36.3434631,84.1607614 C36.2754613,83.4635783 36.7858047,82.8443002 37.4829878,82.7769586 C49.0082959,81.6598811 56.5386657,77.4662191 59.7433311,73.9136223 C65.5327236,67.4957086 64.8170546,58.2626539 64.8091321,58.1702244 C64.8058311,58.134573 64.8045107,58.0982614 64.8045107,58.0626101 C64.8045107,54.7622139 62.1194315,52.0777948 58.8196955,52.0777948 C55.8982606,52.0777948 53.417847,54.1640624 52.9213681,57.0386223 C52.8731727,57.3211928 52.861949,57.7060958 52.8890178,58.1821083 C53.0019138,60.1587807 52.6955757,64.0216769 49.3766938,67.6766065 C46.1654262,71.2113775 41.2409103,73.419124 34.3205757,74.4266065 C34.2921868,74.4305678 34.2644578,74.4338688 34.2360687,74.4358495 C32.5512095,74.5659111 30.9435952,74.703235 29.4574596,74.8431998 C28.7622572,74.9085606 28.1423188,74.396897 28.0769578,73.7003741 C28.0109367,73.003191 28.5226005,72.3852332 29.2197836,72.3192121 C30.7065793,72.1792473 32.3141937,72.0419234 33.9977325,71.9118618 C40.2902061,70.9902068 44.7070194,69.047205 47.4997132,65.9719409 C50.1973363,63.0023107 50.4482166,59.9072403 50.3584279,58.3266946 C50.3194753,57.6493177 50.3406021,57.0868177 50.4237888,56.6075043 C51.1295546,52.5141944 54.6610246,49.5425835 58.8196955,49.5425835 Z M57.7659983,57.9939481 C58.2611568,57.4987895 59.0633135,57.4981294 59.5591321,57.9926276 C59.8317993,58.2652948 59.9545987,58.6310519 59.9268697,58.987566 C59.9275301,59.015955 59.9281902,59.0522666 59.9288504,59.0958406 C60.0173188,64.1497578 58.6064472,68.3810519 55.9556991,71.0100131 C53.4145458,73.5300395 50.3584279,75.5753741 46.8718522,77.0898986 C45.0549508,77.8788511 43.0994049,78.5324604 41.058692,79.0322403 C38.4409542,79.6733054 35.6489208,80.0707525 32.7598363,80.2140185 C32.7380494,80.2153388 32.7169226,80.215999 32.6957959,80.215999 C32.024361,80.215999 31.4645019,79.6891505 31.4308311,79.0111135 C31.3965001,78.3119497 31.9345723,77.7170994 32.6343962,77.6821083 C35.3623892,77.546765 37.9939912,77.1724252 40.4552588,76.5696523 C42.3573276,76.1042032 44.1762095,75.4968089 45.8617289,74.7646346 C49.0584719,73.3755501 51.8538065,71.5071521 54.171148,69.2096169 C56.3260775,67.0725131 57.4708838,63.4968089 57.3942995,59.1400748 C57.3883574,58.8013863 57.3810951,58.3801716 57.7659983,57.9939481 Z M58.8196955,43.8053477 C66.6577236,43.8053477 73.0386657,50.1631821 73.0769578,57.9926276 C73.121192,58.421765 73.2987888,60.4842648 72.9944315,63.3957966 C72.9218081,64.0916592 72.296588,64.5967209 71.6020459,64.5247578 C70.905523,64.4514745 70.4004613,63.828235 70.4730846,63.1323723 C70.7767818,60.222161 70.5529701,58.2303036 70.5503293,58.2111575 C70.5450476,58.1623018 70.5417466,58.1121258 70.5417466,58.0626101 C70.5417466,51.5991417 65.2831639,46.340559 58.8196955,46.340559 C53.0976444,46.340559 48.2398099,50.4292473 47.267979,56.06283 C47.1431991,56.7851012 47.1082077,57.5859374 47.1610246,58.5102332 C47.2230846,59.5896787 47.0408663,61.7148986 45.1295546,63.8196523 C42.1553029,67.0936399 36.2814033,68.9237455 27.6709279,69.2597932 C27.6544226,69.2604533 27.6372572,69.2611135 27.6207518,69.2611135 C26.9433751,69.2611135 26.3815353,68.7250219 26.3551268,68.0423634 C26.3280582,67.3425396 26.8727325,66.753631 27.5725564,66.7265624 C37.4189473,66.3423195 41.5340441,64.006492 43.2525739,62.1149867 C44.5419667,60.6948723 44.6693874,59.3374779 44.6297747,58.6548195 C44.5663944,57.5357614 44.611949,56.546765 44.7697395,55.6317121 C45.9521779,48.7787191 51.8610687,43.8053477 58.8196955,43.8053477 Z M58.8196955,37.7399867 C62.0910423,37.7399867 65.3445635,38.5395026 68.2290264,40.0520467 C68.8489649,40.3768705 69.0879614,41.1433759 68.7624772,41.7633143 C68.4376532,42.3832525 67.671148,42.6222491 67.0512095,42.2974252 C64.5285423,40.9743618 61.6823715,40.275198 58.8196955,40.275198 C54.6055671,40.275198 50.5148979,41.7811399 47.3023099,44.5150748 C44.1299948,47.2146787 41.9955317,50.9494938 41.2910864,55.0309199 C41.2125212,55.4877859 41.1544226,55.9618177 41.1187711,56.4391505 C40.933912,58.8951364 39.3342202,60.9741417 37.043287,61.734705 C34.5754174,62.5540272 31.343023,63.0465449 27.4345723,63.1990535 L27.4345723,63.1990535 L27.2615969,63.2056557 C27.2444315,63.2063159 27.2279261,63.2069763 27.2114208,63.2069763 C26.5340441,63.2069763 25.9722043,62.6715449 25.9457959,61.9888863 C25.9187272,61.2890624 26.4634015,60.7001539 27.1632254,60.6724252 L27.1632254,60.6724252 L27.3362009,60.665823 C31.9075035,60.487566 34.7034983,59.840559 36.2444315,59.3288952 C37.5622132,58.8911751 38.4832077,57.6829885 38.5908222,56.2496698 C38.6324156,55.6917914 38.7004174,55.1365537 38.792847,54.5998018 C39.5976444,49.9347491 42.0364649,45.6678036 45.6597043,42.5846169 C49.3298188,39.4604974 54.0041146,37.7399867 58.8196955,37.7399867 Z M71.5076357,43.8007262 C72.0060951,43.3101892 72.808912,43.3161312 73.3001092,43.8152507 C76.9669226,47.5421435 79.0386657,52.459397 79.1383574,57.6678036 C79.2387095,58.4679797 79.2730405,59.4615976 79.2406902,60.6229093 C79.2215441,61.3108495 78.6577236,61.8548636 77.9744049,61.8548636 L77.9744049,61.8548636 L77.9380934,61.8548636 C77.2382695,61.8350572 76.686993,61.2520906 76.7067993,60.5522666 C76.7365089,59.4886664 76.705479,58.6059638 76.6156902,57.9266065 C76.6090882,57.8777509 76.605787,57.8288952 76.6051268,57.7800395 C76.5331639,53.1988336 74.7182431,48.8704885 71.493111,45.59386 C71.0019138,45.0947403 71.008516,44.2919234 71.5076357,43.8007262 Z M58.8196955,31.347161 C63.3315793,31.347161 67.7516938,32.5494057 71.6013856,34.8238336 C75.3500653,37.0388423 78.4022218,40.1649427 80.4277502,43.8660871 C82.9233486,48.4248459 84.4075035,53.4259463 84.8412624,58.7300835 C84.8980405,59.4272666 84.3784544,60.0392825 83.680611,60.0960608 C83.6456198,60.0993618 83.6106286,60.1006821 83.5762977,60.1006821 C82.9226884,60.1006821 82.368111,59.5989215 82.3139737,58.9354093 C81.9105846,53.9884463 80.5274419,49.3273547 78.2034983,45.0821962 C76.3971602,41.7818 73.667847,38.9891065 70.311993,37.006492 C66.852486,34.9624779 62.8786743,33.8817121 58.8196955,33.8817121 C48.1321955,33.8817121 38.680611,41.0238777 35.8344403,51.2498899 C35.7393699,51.5951803 35.6205317,52.1108054 35.4812272,52.7782789 C35.0336039,54.931228 33.2734808,56.5606294 31.1020459,56.8346169 C29.9691232,56.9772226 28.6797307,57.0788952 27.2701796,57.1350131 C26.5696955,57.1627421 25.9814472,56.6193881 25.9530582,55.9195642 C25.9246691,55.2197403 26.4693433,54.6301716 27.1685071,54.6017825 C28.5067554,54.5483054 29.7235248,54.453235 30.7851445,54.3192121 C31.8824156,54.181228 32.7723804,53.3546435 32.999493,52.2626539 C33.149361,51.5423634 33.2814033,50.9739215 33.3916584,50.5738336 C36.5421868,39.2518705 46.9979526,31.347161 58.8196955,31.347161 Z M58.8196955,25.1180676 C76.9854085,25.1180676 91.7642377,39.896897 91.7642377,58.0626101 C91.7642377,58.7624338 91.1971164,59.3302157 90.4966321,59.3302157 C89.7968081,59.3302157 89.2290264,58.7624338 89.2290264,58.0626101 C89.2290264,41.2945642 75.587081,27.6526187 58.8196955,27.6526187 C51.5652941,27.6526187 44.5406462,30.2492298 39.0404262,34.9631381 C38.508956,35.4193441 37.70878,35.3572843 37.2532343,34.8258141 C36.7976884,34.2943441 36.8590882,33.494168 37.3905582,33.0386223 C43.3502854,27.931228 50.9605405,25.1180676 58.8196955,25.1180676 Z M33.1308751,37.4343089 C33.5699156,36.8889745 34.3674508,36.8024867 34.9134455,37.240867 C35.45878,37.6792473 35.5452677,38.4774427 35.1068874,39.0227773 C32.5181991,42.2426276 30.6438592,45.8817121 29.5347043,49.8396787 C29.3775739,50.3995378 28.633516,50.8544234 27.9719842,50.7184197 C27.286685,50.5771346 26.9044226,49.8297755 27.0939033,49.1556998 C28.2954878,44.8663071 30.3269578,40.9228652 33.1308751,37.4343089 Z" id="Combined-Shape" fill="#FFFFFF" fill-rule="nonzero" opacity="0.509509859"></path>
          <g id="check" transform="translate(66.921254, 65.118508)">
            <circle id="Oval" fill="#00D2A0" cx="18.25" cy="17.75" r="17.75"></circle>
            <g id="Icons-/-24px-/-Check-Copy-3" transform="translate(1.865385, 1.365385)" fill="#F5F7FA">
              <polygon id="Path" points="7.89876727 15.5262459 6.14423077 17.2807824 12.0944952 23.2310469 12.9711538 24.0686887 13.8478125 23.2310469 26.625 10.4538593 24.8716828 8.70054209 12.9723731 20.5998517"></polygon>
            </g>
          </g>
          <path d="M66.9058099,96.3254841 C64.2755282,96.8886443 61.5666813,97.1745159 58.8545334,97.1745159 C48.6192781,97.1745159 38.9960386,93.1881602 31.7588028,85.9509243 C24.5209066,78.7130282 20.5352113,69.0904489 20.5352113,58.8545334 C20.5352113,48.6192781 24.5209066,38.996699 31.7588028,31.7588028 C38.996699,24.521567 48.6192781,20.5352113 58.8545334,20.5352113 C69.0904489,20.5352113 78.7130282,24.521567 85.9509243,31.7588028 C93.1881602,38.996699 97.1745159,48.6192781 97.1745159,58.8545334 C97.1745159,60.2753081 97.0952905,61.7086268 96.9394807,63.1142165 C96.8622358,63.8100793 97.3633362,64.4366197 98.059199,64.5138644 C98.7524207,64.5911091 99.381602,64.0893485 99.4588469,63.3934859 C99.6252201,61.8954666 99.7090668,60.368398 99.7090668,58.8545334 C99.7090668,47.9419014 95.4599473,37.6822183 87.743398,29.9663292 C80.0268487,22.2497799 69.7671654,18 58.8545334,18 C47.9419014,18 37.6822183,22.2497799 29.9663292,29.9663292 C22.2497799,37.6822183 18,47.9419014 18,58.8545334 C18,69.7671654 22.2497799,80.0268487 29.9663292,87.743398 C37.6822183,95.4599473 47.9419014,99.7097272 58.8545334,99.7097272 C61.7449384,99.7097272 64.6320423,99.4053698 67.4366197,98.8045775 C68.1212588,98.6580105 68.5576584,97.9839348 68.4110915,97.2999559 C68.2645247,96.6153169 67.5897887,96.1789173 66.9058099,96.3254841 Z" id="Path" fill="#00D2A0" fill-rule="nonzero"></path>
        </g>
      </g>
    </g>
  </g>
</svg>