<?xml version="1.0" encoding="UTF-8" standalone="no"?>
<svg width="22px" height="22px" viewBox="0 0 22 22" version="1.1" xmlns="http://www.w3.org/2000/svg" xmlns:xlink="http://www.w3.org/1999/xlink">
  <g id="Design" stroke="none" stroke-width="1" fill="none" fill-rule="evenodd">
    <g id="1.1-ID-Protection-Off-Desktop" transform="translate(-561.000000, -153.000000)" fill="#F53758">
      <g id="sevices" transform="translate(165.000000, 150.000000)">
        <g id="Icons-/-24px-/-Check-Copy-4" transform="translate(396.000000, 3.000000)">
          <path d="M10.012367,3.07301407 C10.3332227,2.52755945 11.0355059,2.34548602 11.5809606,2.66634168 C11.7488866,2.76512172 11.8888529,2.905088 11.987633,3.07301407 L11.987633,3.07301407 L20.352942,17.2940394 C20.6737977,17.8394941 20.4917242,18.5417773 19.9462696,18.862633 C19.7701818,18.966214 19.5696028,19.0208333 19.365309,19.0208333 L19.365309,19.0208333 L2.63469096,19.0208333 C2.00186469,19.0208333 1.48885763,18.5078263 1.48885763,17.875 C1.48885763,17.6707062 1.54347693,17.4701273 1.64705801,17.2940394 L1.64705801,17.2940394 Z M11,4.10483333 L3.03416667,17.6458333 L18.9649167,17.6458333 L11,4.10483333 Z M11,13.75 C11.4903314,13.7719338 11.8765785,14.175845 11.8765785,14.6666667 C11.8765785,15.1574884 11.4903314,15.5613996 11,15.5833333 C10.5096686,15.5613996 10.1234215,15.1574884 10.1234215,14.6666667 C10.1234215,14.175845 10.5096686,13.7719338 11,13.75 Z M11,8.25 C11.345178,8.25 11.6309414,8.50438366 11.6800457,8.83590629 L11.6875,8.9375 L11.6875,12.1458333 C11.6875,12.5255291 11.3796958,12.8333333 11,12.8333333 C10.654822,12.8333333 10.3690586,12.5789497 10.3199543,12.247427 L10.3125,12.1458333 L10.3125,8.9375 C10.3125,8.55780423 10.6203042,8.25 11,8.25 Z" id="Combined-Shape"></path>
        </g>
      </g>
    </g>
  </g>
</svg>